<?xml version="1.0" encoding="UTF-8" ?>
 <svg viewBox="-494.8373991341441 0.3760542618366336  485.13253842830926 879.9637846204629" xmlns="http://www.w3.org/2000/svg" version="1.0" overflow="visible">
  <defs>
   <g id="ID__#42_MODEL_SPACE"/>
   <g id="ID__#42_PAPER_SPACE"/>
  </defs>
  <g id="draft" transform="matrix(1 0 0 -1 0 0)" stroke-width="0.1706370403810965">
   <g id="ID_0" color="rgb(0,0,0)" stroke="currentColor" fill="none" stroke-width="0.1706370403810965">
    <path d="M -62.70486070583487 -89.99358425524002 L -62.70486070583488 -94.99358425523997 L -50.70486070583492 -94.99358425524 L -50.7048607058349 -89.99358425524005  z" id="ID_100"/>
    <path d="M -38.704860705834975 -89.99358425524007 L -38.70486070583499 -94.99358425524001 L -26.704860705835024 -94.99358425524002 L -26.70486070583501 -89.99358425524008  z" id="ID_101"/>
    <path d="M -62.704860705835586 -339.9935842552376 L -62.7048607058356 -344.9935842552375 L -50.70486070583564 -344.9935842552375 L -50.70486070583563 -339.9935842552376  z" id="ID_102"/>
    <path d="M -38.704860705835685 -339.9935842552377 L -38.7048607058357 -344.9935842552376 L -26.704860705835745 -344.9935842552376 L -26.70486070583572 -339.9935842552377  z" id="ID_103"/>
    <path d="M -74.70486070583571 -399.99358425523695 L -74.70486070583459 -9.993584255240798 L -62.70486070583465 -9.993584255240817 L -62.704860705834626 -4.993584255240865 L -50.70486070583467 -4.993584255240883 L -50.70486070583469 -9.993584255240833 L -33.70486070583476 -9.99358425524086 L -33.70486070583475 -4.993584255240907 L -21.704860705834786 -4.993584255240925 L -21.704860705834797 -9.993584255240876 L -9.704860705834847 -9.993584255240933 L -9.704860705835962 -399.9935842552371 L -21.704860705835912 -399.9935842552371 L -21.704860705835927 -404.993584255237 L -33.70486070583588 -404.993584255237 L -33.70486070583586 -399.993584255237 L -50.704860705835806 -399.993584255237 L -50.70486070583583 -404.99358425523695 L -62.70486070583577 -404.99358425523695 L -62.704860705835756 -399.993584255237  z" id="ID_104"/>
    <path d="M -320.6394602701812 -420.51544058087813 L -10.639460270179901 -420.51544058087666 L -10.639460270180372 -820.5154405808775 L -320.6394602701817 -820.5154405808788  z" id="ID_105"/>
    <path d="M -149.78895680396474 -365.78291195864034 L -149.78895680396485 -285.7829119586406 L -137.78895680396488 -285.78291195864057 L -137.78895680396488 -280.7829119586406 L -125.00958938536621 -280.7829119586405 L -125.00958938536621 -285.7829119586405 L -114.56832422256363 -285.7829119586405 L -114.56832422256362 -280.7829119586405 L -101.78895680396495 -280.7829119586405 L -101.78895680396495 -285.7829119586405 L -89.78895680396498 -285.78291195864045 L -89.78895680396488 -365.7829119586403 L -101.78895680396482 -365.78291195864017 L -101.78895680396482 -370.7829119586403 L -113.78895680396481 -370.7829119586403 L -113.78895680396481 -365.7829119586403 L -125.78895680396477 -365.7829119586403 L -125.78895680396478 -370.7829119586403 L -137.78895680396477 -370.7829119586403 L -137.78895680396477 -365.78291195864034  z" id="ID_106"/>
    <path d="M -150.26809931272305 -253.73136141326543 L -150.26809931272288 -8.731361413264018 L -138.2680993127229 -8.731361413264029 L -138.2680993127229 -3.73136141326399 L -126.26809931272292 -3.7313614132639716 L -126.26809931272292 -8.731361413264008 L -114.26809931272295 -8.731361413264011 L -114.26809931272295 -3.731361413263972 L -102.26809931272298 -3.731361413263954 L -102.26809931272298 -8.73136141326399 L -90.268099312723 -8.731361413263983 L -90.26809931272317 -253.7313614132654 L -102.26809931272314 -253.73136141326543 L -102.26809931272315 -258.73136141326546 L -114.26809931272311 -258.73136141326546 L -114.26809931272311 -253.7313614132654 L -126.26809931272308 -253.73136141326543 L -126.26809931272308 -258.73136141326546 L -138.26809931272305 -258.73136141326546 L -138.26809931272305 -253.7313614132654  z" id="ID_107"/>
    <path d="M -182.05511165699096 -402.02599095450137 L -182.05511165699096 -397.0259909545015 L -194.05511165699093 -397.02599095450154 L -194.0551116569909 -402.02599095450137 L -216.05511165699082 -402.0259909545013 L -216.05511165699082 -397.02599095450137 L -228.05511165699076 -397.0259909545015 L -228.0551116569908 -402.02599095450137 L -240.05511165699073 -402.0259909545013 L -240.05511165699076 -2.0259909545047594 L -228.05511252125814 -2.02599095450477 L -228.05511252125814 -7.025990954504727 L -216.0551125212582 -7.025990954504737 L -216.0551125212582 -2.0259909545047803 L -194.05511165699093 -2.025990954504799 L -194.05511165699093 -7.025990954504757 L -182.05511165699096 -7.025990954504766 L -182.05511165699096 -2.0259909545048096 L -170.05511165699102 -2.025990954504877 L -170.05511165699102 -402.0259909545015  z" id="ID_108"/>
    <path d="M -328.43080070523774 -400.376054261834 L -328.43080070523706 -5.376054261836803 L -316.43080070523706 -5.376054261836759 L -316.43080070523706 -0.37605426183679486 L -304.4308007052372 -0.3760542618367535 L -304.4308007052371 -5.3760542618367175 L -282.43080070523723 -5.376054261836639 L -282.43080070523723 -0.376054261836675 L -270.4308007052373 -0.3760542618366336 L -270.4308007052373 -5.3760542618365985 L -258.43080070523735 -5.376054261836671 L -258.430800705238 -400.37605426183376 L -270.43080070523797 -400.37605426183376 L -270.43080070523797 -395.3760542618338 L -282.43080070523797 -395.37605426183393 L -282.43080070523797 -400.37605426183393 L -304.43080070523786 -400.37605426183393 L -304.4308007052378 -395.37605426183393 L -316.4308007052378 -395.37605426183404 L -316.4308007052378 -400.376054261834  z" id="ID_109"/>
    <path d="M -316.4308007052373 -85.37605426183619 L -316.4308007052373 -90.37605426183616 L -304.4308007052373 -90.3760542618361 L -304.4308007052373 -85.37605426183616  z" id="ID_110"/>
    <path d="M -280.4308007052374 -90.37605426183602 L -280.4308007052374 -85.37605426183605 L -292.43080070523735 -85.3760542618361 L -292.4308007052374 -90.37605426183605  z" id="ID_111"/>
    <path d="M -409.3827272970501 -192.69185799126166 L -409.3827272970506 -17.691857991262065 L -397.3827272970507 -17.691857991262058 L -397.38272729705056 -22.691857991262086 L -385.3827272970507 -22.691857991262108 L -385.3827272970507 -17.69185799126212 L -373.3827272970507 -17.69185799126212 L -373.3827272970507 -22.691857991262104 L -361.38272729705074 -22.691857991262125 L -361.38272729705074 -17.691857991262097 L -349.3827272970508 -17.69185799126209 L -349.3827272970503 -192.69185799126166 L -361.3827272970502 -192.69185799126166 L -361.3827272970502 -197.69185799126166 L -373.38272729705017 -197.69185799126166 L -373.38272729705017 -192.69185799126166 L -385.3827272970501 -192.69185799126166 L -385.3827272970501 -197.69185799126163 L -397.38272729705017 -197.69185799126163 L -397.38272729705017 -192.69185799126163  z" id="ID_112"/>
    <path d="M -397.38272729705034 -132.69185799126177 L -397.38272729705034 -137.6918579912618 L -385.38272729705034 -137.69185799126183 L -385.38272729705034 -132.69185799126183  z" id="ID_113"/>
    <path d="M -361.38272729705056 -77.69185799126201 L -361.38272729705056 -72.69185799126198 L -373.38272729705056 -72.691857991262 L -373.38272729705056 -77.691857991262  z" id="ID_114"/>
    <path d="M -385.3827272970505 -77.69185799126197 L -385.3827272970505 -72.69185799126198 L -397.38272729705045 -72.69185799126194 L -397.38272729705045 -77.69185799126195  z" id="ID_115"/>
    <path d="M -373.3827272970504 -132.69185799126183 L -373.3827272970504 -137.69185799126183 L -361.38272729705045 -137.69185799126183 L -361.38272729705045 -132.69185799126183  z" id="ID_116"/>
    <path d="M -443.89219215765246 -189.3053639973117 L -443.89219215765246 -184.3053639973117 L -455.8921921576524 -184.3053639973116 L -455.8921921576524 -189.30536399731164  z" id="ID_117"/>
    <path d="M -479.89219215765223 -184.3053639973115 L -479.89219215765223 -189.3053639973115 L -467.8921921576523 -189.3053639973116 L -467.8921921576523 -184.30536399731156  z" id="ID_118"/>
    <path d="M -443.89219215765246 -129.30536399731193 L -443.89219215765246 -124.30536399731196 L -455.8921921576524 -124.3053639973119 L -455.8921921576524 -129.30536399731187  z" id="ID_119"/>
    <path d="M -479.89219215765223 -124.3053639973118 L -479.89219215765223 -129.3053639973118 L -467.89219215765235 -129.30536399731184 L -467.8921921576523 -124.30536399731184  z" id="ID_120"/>
    <path d="M -467.89219215765235 -74.30536399731197 L -467.89219215765235 -69.30536399731199 L -479.89219215765223 -69.30536399731193 L -479.8921921576523 -74.30536399731191  z" id="ID_121"/>
    <path d="M -455.8921921576524 -69.30536399731204 L -455.8921921576524 -74.30536399731201 L -443.8921921576525 -74.30536399731207 L -443.89219215765246 -69.30536399731209  z" id="ID_122"/>
    <path d="M -491.8921921576521 -244.30536399731136 L -491.8921921576522 -9.30536399731206 L -479.8921921576523 -9.305363997312108 L -479.8921921576523 -4.305363997312124 L -467.89219215765235 -4.305363997312174 L -467.89219215765235 -9.30536399731216 L -455.89219215765246 -9.305363997312213 L -455.89219215765246 -4.305363997312227 L -443.8921921576525 -4.305363997312279 L -443.8921921576526 -9.305363997312263 L -431.8921921576526 -9.305363997312277 L -431.8921921576525 -244.30536399731156 L -443.89219215765246 -244.3053639973115 L -443.8921921576524 -249.30536399731147 L -455.8921921576524 -249.30536399731147 L -455.8921921576524 -244.30536399731147 L -467.8921921576523 -244.3053639973114 L -467.8921921576523 -249.30536399731136 L -479.89219215765223 -249.30536399731136 L -479.8921921576522 -244.30536399731136  z" id="ID_123"/>
    <path d="M -479.8921921576523 -59.30536399731195 L -479.8921921576523 -64.30536399731193 L -467.89219215765235 -64.30536399731197 L -467.89219215765235 -59.305363997311986  z" id="ID_124"/>
    <path d="M -455.8921921576524 -59.305363997312035 L -455.8921921576524 -64.30536399731201 L -443.8921921576525 -64.30536399731207 L -443.8921921576525 -59.30536399731209  z" id="ID_125"/>
    <path d="M -494.7110046784801 -530.9862833687268 L -494.71100467848 -285.9862833687262 L -482.71100467847987 -285.98628336872616 L -482.7110046784799 -280.98628336872616 L -470.71100467847987 -280.9862833687262 L -470.71100467847987 -285.9862833687262 L -458.71100467847975 -285.98628336872616 L -458.71100467847975 -280.98628336872616 L -446.71100467847964 -280.9862833687262 L -446.7110046784797 -285.9862833687262 L -434.7110046784795 -285.9862833687262 L -434.7110046784797 -530.9862833687268 L -446.71100467847975 -530.9862833687268 L -446.71100467847975 -535.9862833687268 L -458.71100467847987 -535.9862833687268 L -458.7110046784798 -530.9862833687268 L -470.7110046784799 -530.9862833687268 L -470.7110046784799 -535.9862833687268 L -482.71100467848 -535.9862833687268 L -482.7110046784799 -530.9862833687268  z" id="ID_126"/>
    <path d="M -402.97067827879806 -454.5639732916959 L -402.970678278798 -459.56397329169596 L -390.970678278798 -459.5639732916959 L -390.97067827879806 -454.56397329169585  z" id="ID_127"/>
    <path d="M -373.9706782787981 -454.5639732916958 L -373.970678278798 -459.56397329169585 L -361.9706782787979 -459.5639732916958 L -361.970678278798 -454.5639732916958  z" id="ID_128"/>
    <path d="M -402.97067827879965 -269.5639732916942 L -402.9706782787996 -274.56397329169425 L -390.1913108602008 -274.5639732916942 L -390.19131086020093 -269.5639732916942  z" id="ID_129"/>
    <path d="M -379.7500456973983 -269.56397329169414 L -379.75004569739826 -274.56397329169414 L -366.9706782787995 -274.56397329169414 L -366.9706782787996 -269.5639732916941  z" id="ID_130"/>
    <path d="M -402.97067827880016 -214.56397329169369 L -402.97067827880005 -219.56397329169377 L -390.97067827879994 -219.56397329169374 L -390.97067827880005 -214.56397329169366 L -368.97067827880005 -214.5639732916936 L -368.9706782788 -219.56397329169366 L -356.97067827879994 -219.56397329169363 L -356.97067827880005 -214.56397329169357 L -344.97067827880005 -214.5639732916935 L -344.97067827879744 -519.5639732916961 L -356.9706782787975 -519.5639732916962 L -356.97067827879744 -524.5639732916964 L -368.97067827879744 -524.5639732916964 L -368.97067827879744 -519.5639732916964 L -390.9706791430649 -519.5639732916964 L -390.9706791430648 -524.5639732916965 L -402.9706791430648 -524.5639732916966 L -402.9706791430649 -519.5639732916965 L -414.97067827879755 -519.5639732916966 L -414.9706782788001 -214.56397329169377  z" id="ID_131"/>
    <path d="M -388.71332676594557 -635.3398388822977 L -400.7133267659457 -635.3398388822972 L -400.7133267659459 -640.3398388822972 L -388.71332676594585 -640.3398388822978  z" id="ID_132"/>
    <path d="M -359.71332676594534 -635.3398388822994 L -371.71332676594545 -635.3398388822987 L -371.71332676594574 -640.3398388822989 L -359.7133267659456 -640.3398388822994  z" id="ID_133"/>
    <path d="M -400.71332676595796 -875.339838882297 L -412.7133267659581 -875.3398388822962 L -412.7133267659426 -575.3398388822966 L -400.7133267659426 -575.3398388822972 L -400.7133267659423 -570.3398388822973 L -388.7133267659422 -570.339838882298 L -388.7133267659425 -575.339838882298 L -366.7133267659423 -575.3398388822991 L -366.7133267659421 -570.3398388822991 L -354.71332676594193 -570.3398388822998 L -354.7133267659422 -575.3398388822998 L -342.71332676594216 -575.3398388823005 L -342.71332676595756 -875.3398388823002 L -354.71332676595756 -875.3398388822995 L -354.71332676595785 -880.3398388822995 L -366.713326765958 -880.3398388822989 L -366.7133267659577 -875.339838882299 L -388.71332676595785 -875.3398388822977 L -388.71332676595813 -880.3398388822977 L -400.71332676595824 -880.339838882297  z" id="ID_134"/>
    <path d="M -494.8373991341441 -810.8729558761363 L -494.83739913414354 -565.8729558761366 L -482.83739913414354 -565.8729558761366 L -482.83739913414354 -560.8729558761366 L -470.8373991341435 -560.8729558761366 L -470.8373991341435 -565.8729558761366 L -458.8373991341434 -565.8729558761366 L -458.8373991341434 -560.8729558761366 L -446.8373991341434 -560.8729558761366 L -446.8373991341434 -565.8729558761366 L -434.8373991341433 -565.8729558761366 L -434.8373991341439 -810.8729558761363 L -446.837399134144 -810.8729558761363 L -446.837399134144 -815.8729558761363 L -458.837399134144 -815.8729558761363 L -458.837399134144 -810.8729558761363 L -470.83739913414405 -810.8729558761363 L -470.83739913414405 -815.8729558761363 L -482.8373991341441 -815.8729558761363 L -482.8373991341441 -810.8729558761363  z" id="ID_135"/>
   </g>
  </g>
 </svg>